# Blender v2.80 (sub 75) OBJ File: 'game engine assets.blend'
# www.blender.org
mtllib corner.mtl
o Cube.002_Cube.004
v -1.474615 6.807028 1.586287
v -1.474615 -0.942556 1.586287
v 7.458114 6.807028 1.586286
v 7.458114 -0.942556 1.586286
v -1.474615 6.807028 2.007405
v -1.474615 -0.942556 2.007405
v 7.458114 6.807028 2.007404
v 7.458114 -0.942556 2.007404
v -1.474615 -0.420218 1.586287
v 7.458114 -0.420218 2.007404
v 7.458114 -0.420218 1.586286
v -1.474615 -0.420218 2.007405
v 7.458114 -0.378505 2.007404
v -1.474615 -0.378505 1.586287
v 7.458114 -0.378505 1.586286
v -1.474615 -0.378505 2.007405
v 7.458114 -0.131700 2.007404
v -1.474615 -0.131700 1.586287
v 7.458114 -0.131700 1.586286
v -1.474615 -0.131700 2.007405
v -1.474615 -0.172348 1.586287
v 7.458114 -0.172348 1.586286
v -1.474615 -0.172348 2.007405
v 7.458114 -0.172348 2.007404
v 7.458114 -0.091620 2.007404
v -1.474615 -0.091620 1.586287
v 7.458114 -0.091620 1.586286
v -1.474615 -0.091620 2.007405
v -1.474615 -0.420218 1.482225
v -1.474615 -0.942556 1.482225
v 7.458114 -0.420218 1.482224
v 7.458114 -0.942556 1.482224
v -1.474615 -0.378505 1.497735
v -1.474615 -0.420218 1.497735
v 7.458114 -0.378505 1.497734
v 7.458114 -0.420218 1.497734
v -1.474615 -0.172348 1.507375
v -1.474615 -0.378505 1.507375
v 7.458114 -0.172348 1.507375
v 7.458114 -0.378505 1.507375
v -1.474615 -0.131700 1.520305
v 7.458114 -0.131700 1.520304
v -1.474615 -0.172348 1.520305
v 7.458114 -0.172348 1.520304
v -1.474615 -0.091620 1.547414
v -1.474615 -0.131700 1.547414
v 7.458114 -0.091620 1.547413
v 7.458114 -0.131700 1.547413
v -1.475796 6.807028 -7.352923
v -1.475796 -0.942556 -7.352923
v -1.475796 6.807028 1.579806
v -1.475796 -0.942556 1.579806
v -1.896914 6.807028 -7.352923
v -1.896914 -0.942556 -7.352923
v -1.896914 6.807028 1.579806
v -1.896914 -0.942556 1.579806
v -1.475796 -0.420218 -7.352923
v -1.896914 -0.420218 1.579806
v -1.475796 -0.420218 1.579806
v -1.896914 -0.420218 -7.352923
v -1.896914 -0.378505 1.579806
v -1.475796 -0.378505 -7.352923
v -1.475796 -0.378505 1.579806
v -1.896914 -0.378505 -7.352923
v -1.896914 -0.131699 1.579806
v -1.475796 -0.131700 -7.352923
v -1.475796 -0.131700 1.579806
v -1.896914 -0.131700 -7.352923
v -1.475796 -0.172348 -7.352923
v -1.475796 -0.172348 1.579806
v -1.896914 -0.172348 -7.352923
v -1.896914 -0.172348 1.579806
v -1.896914 -0.091619 1.579806
v -1.475796 -0.091620 -7.352923
v -1.475796 -0.091620 1.579806
v -1.896914 -0.091620 -7.352923
v -1.371734 -0.420218 -7.352923
v -1.371734 -0.942556 -7.352923
v -1.371734 -0.420218 1.579806
v -1.371734 -0.942556 1.579806
v -1.387244 -0.378505 -7.352923
v -1.387244 -0.420218 -7.352923
v -1.387244 -0.378505 1.579806
v -1.387244 -0.420218 1.579806
v -1.396884 -0.172348 -7.352923
v -1.396884 -0.378505 -7.352923
v -1.396884 -0.172348 1.579806
v -1.396884 -0.378505 1.579806
v -1.409814 -0.131700 -7.352923
v -1.409813 -0.131700 1.579806
v -1.409814 -0.172348 -7.352923
v -1.409813 -0.172348 1.579806
v -1.436923 -0.091620 -7.352923
v -1.436923 -0.131700 -7.352923
v -1.436923 -0.091620 1.579806
v -1.436923 -0.131700 1.579806
v -1.895826 -0.942556 1.586287
v -1.895826 6.807028 2.007404
v -1.895826 -0.942556 2.007404
v -1.895826 -0.420218 2.007404
v -1.895826 -0.378505 2.007404
v -1.895826 -0.131700 2.007404
v -1.895826 -0.172348 2.007404
v -1.895826 -0.091620 2.007404
v -1.896914 -0.942556 -7.352923
v -1.896914 -0.942556 1.579806
v -1.896914 -0.420218 -7.352923
v -1.896914 -0.420218 1.579806
v -1.895826 -0.420218 2.007404
v -1.895826 -0.942556 2.007404
v -2.003450 -0.942556 -7.352787
v -2.003450 -0.942556 1.579942
v -2.003450 -0.420218 -7.352787
v -2.003450 -0.420218 1.579942
v -2.002362 -0.420218 2.007540
v -2.002362 -0.942556 2.007540
v -1.986835 -0.378505 -7.352812
v -1.986835 -0.420218 -7.352812
v -1.986835 -0.420218 1.579917
v -1.986835 -0.378505 1.579917
v -1.985746 -0.378505 2.007515
v -1.985746 -0.420218 2.007515
v -1.976735 -0.172348 -7.352822
v -1.976735 -0.378505 -7.352822
v -1.976735 -0.378505 1.579908
v -1.976735 -0.172348 1.579908
v -1.975647 -0.172348 2.007506
v -1.975647 -0.378505 2.007506
v -1.962595 -0.172348 1.579890
v -1.962595 -0.131699 1.579890
v -1.962595 -0.131700 -7.352839
v -1.962595 -0.172348 -7.352839
v -1.961507 -0.131700 2.007488
v -1.961507 -0.172348 2.007488
v -1.937639 -0.091620 -7.352870
v -1.937639 -0.131700 -7.352870
v -1.937639 -0.131699 1.579858
v -1.937639 -0.091619 1.579858
v -1.936551 -0.091620 2.007456
v -1.936551 -0.131700 2.007456
v -1.474570 -0.942556 2.112964
v 7.458159 -0.942556 2.112963
v -1.474570 -0.420218 2.112964
v 7.458159 -0.420218 2.112963
v -1.895781 -0.420218 2.112964
v -1.895781 -0.942556 2.112964
v -1.895781 -0.420218 2.112964
v -1.895781 -0.942556 2.112964
v -2.002317 -0.420218 2.113099
v -2.002317 -0.942556 2.113099
v -1.474577 -0.378505 2.097716
v -1.474577 -0.420218 2.097716
v 7.458152 -0.420218 2.097716
v 7.458152 -0.378505 2.097716
v -1.895788 -0.378505 2.097716
v -1.895788 -0.420218 2.097716
v -1.985709 -0.378505 2.097827
v -1.985709 -0.420218 2.097827
v -1.474581 -0.172348 2.087226
v -1.474581 -0.378505 2.087226
v 7.458148 -0.378505 2.087225
v 7.458148 -0.172348 2.087225
v -1.895791 -0.172348 2.087226
v -1.975613 -0.172348 2.087327
v -1.895791 -0.378505 2.087226
v -1.975613 -0.378505 2.087327
v 7.458139 -0.172348 2.073515
v 7.458139 -0.131700 2.073515
v -1.474590 -0.131700 2.073515
v -1.474590 -0.172348 2.073515
v -1.895800 -0.131700 2.073515
v -1.895800 -0.172348 2.073515
v -1.961482 -0.131700 2.073599
v -1.961482 -0.172348 2.073599
v -1.474598 -0.091620 2.046500
v -1.474598 -0.131700 2.046500
v 7.458131 -0.131700 2.046500
v 7.458131 -0.091620 2.046500
v -1.895809 -0.091620 2.046500
v -1.895809 -0.131700 2.046500
v -1.936534 -0.091620 2.046552
v -1.936534 -0.131700 2.046552
vt 0.559578 0.428734
vt 0.565422 0.428734
vt 0.565422 0.434578
vt 0.559578 0.434578
vt 1.000000 0.000000
vt 1.000000 1.000000
vt 1.000000 1.000000
vt 1.000000 0.000000
vt 0.045142 1.000000
vt 0.045142 0.000000
vt 0.375000 0.750000
vt 0.625000 0.750000
vt 0.625000 1.000000
vt 0.375000 1.000000
vt 0.045142 0.000000
vt 0.045142 1.000000
vt 0.259566 0.442973
vt 0.259567 0.442973
vt 0.259567 0.442973
vt 0.259566 0.442973
vt 0.259568 0.442969
vt 0.259569 0.442968
vt 0.259569 0.442968
vt 0.259568 0.442969
vt 0.259567 0.442973
vt 0.259568 0.442969
vt 0.134542 0.750000
vt 0.134542 0.500000
vt 0.134542 0.500000
vt 0.134542 0.750000
vt 0.259568 0.442967
vt 0.259568 0.442967
vt 0.259568 0.442967
vt 0.259568 0.442967
vt 0.259567 0.442973
vt 0.259567 0.442969
vt 0.259567 0.442973
vt 0.259567 0.442973
vt 0.259567 0.442973
vt 0.259567 0.442973
vt 0.259565 0.442967
vt 0.259565 0.442967
vt 0.259565 0.442967
vt 0.259565 0.442967
vt 0.259567 0.442969
vt 0.259567 0.442969
vt 0.259567 0.442967
vt 0.259568 0.442967
vt 0.259567 0.442967
vt 0.259567 0.442967
vt 0.259566 0.442973
vt 0.259566 0.442973
vt 0.259566 0.442973
vt 0.259566 0.442973
vt 0.259567 0.442973
vt 0.259567 0.442973
vt 0.259567 0.442973
vt 0.259565 0.442967
vt 0.259565 0.442968
vt 0.259565 0.442968
vt 0.259564 0.442968
vt 0.259567 0.442969
vt 0.259566 0.442973
vt 0.259567 0.442973
vt 0.259566 0.442973
vt 0.625000 0.750000
vt 0.625000 1.000000
vt 0.259566 0.442973
vt 0.259566 0.442973
vt 0.259567 0.442973
vt 0.259567 0.442973
vt 0.259567 0.442973
vt 0.259567 0.442973
vt 0.136020 0.750000
vt 0.136020 0.500000
vt 0.136020 0.500000
vt 0.136020 0.750000
vt 0.259566 0.442973
vt 0.259566 0.442973
vt 0.259566 0.442973
vt 0.159980 0.750000
vt 0.159980 0.500000
vt 0.159980 0.500000
vt 0.159980 0.750000
vt 0.259566 0.442973
vt 0.259566 0.442973
vt 0.183940 0.750000
vt 0.183940 0.500000
vt 0.183940 0.500000
vt 0.183940 0.750000
vt 0.259566 0.442973
vt 0.559578 0.428734
vt 0.565422 0.428734
vt 0.565422 0.434578
vt 0.559578 0.434578
vt 0.045682 0.000000
vt 0.045682 1.000000
vt 1.000000 1.000000
vt 1.000000 0.000000
vt 0.375000 0.750000
vt 0.625000 0.750000
vt 0.625000 1.000000
vt 0.375000 1.000000
vt 1.000000 0.000000
vt 1.000000 1.000000
vt 0.045682 1.000000
vt 0.045682 0.000000
vt 0.260418 0.436759
vt 0.260397 0.436756
vt 0.260399 0.436744
vt 0.260418 0.436746
vt 0.260401 0.432029
vt 0.260403 0.432030
vt 0.260401 0.436743
vt 0.260418 0.436759
vt 0.260397 0.436756
vt 0.260396 0.436756
vt 0.260398 0.436744
vt 0.134542 0.750000
vt 0.134542 0.500000
vt 0.134542 0.500000
vt 0.134542 0.750000
vt 0.259575 0.442835
vt 0.259577 0.442836
vt 0.260388 0.436755
vt 0.260386 0.436754
vt 0.260390 0.436742
vt 0.260391 0.436742
vt 0.259351 0.435560
vt 0.259351 0.435560
vt 0.259351 0.435560
vt 0.259351 0.435560
vt 0.259562 0.442834
vt 0.259563 0.442834
vt 0.260395 0.436757
vt 0.260388 0.436756
vt 0.260393 0.436742
vt 0.260398 0.436742
vt 0.260385 0.436754
vt 0.260389 0.436742
vt 0.260167 0.434172
vt 0.260167 0.434171
vt 0.260167 0.434171
vt 0.260167 0.434172
vt 0.259564 0.442967
vt 0.259561 0.442834
vt 0.260418 0.436743
vt 0.260418 0.432030
vt 0.260418 0.432027
vt 0.625000 0.750000
vt 0.625000 1.000000
vt 0.260399 0.436743
vt 0.260398 0.436743
vt 0.258841 0.435808
vt 0.258841 0.435808
vt 0.258840 0.435809
vt 0.258840 0.435809
vt 0.260356 0.433346
vt 0.260361 0.433346
vt 0.260356 0.433345
vt 0.260360 0.433344
vt 0.136020 0.750000
vt 0.136020 0.500000
vt 0.136020 0.500000
vt 0.136020 0.750000
vt 0.260391 0.436741
vt 0.260391 0.436741
vt 0.159980 0.750000
vt 0.159980 0.500000
vt 0.159980 0.500000
vt 0.159980 0.750000
vt 0.260390 0.436741
vt 0.260389 0.436741
vt 0.183940 0.750000
vt 0.183940 0.500000
vt 0.183940 0.500000
vt 0.183940 0.750000
vt 0.259568 0.442969
vt 0.259568 0.442969
vt 0.259566 0.442967
vt 0.259565 0.442967
vt 0.259567 0.442969
vt 0.259567 0.442969
vt 0.259564 0.442968
vt 0.259564 0.442968
vt 0.259567 0.442969
vt 0.259570 0.442968
vt 0.259568 0.442969
vt 0.259569 0.442968
vt 0.375000 0.750000
vt 0.625000 0.750000
vt 0.000116 1.000000
vt 0.000116 0.000000
vt 0.384542 0.500000
vt 0.384542 0.750000
vt 0.384542 0.750000
vt 0.384542 0.500000
vt 0.259581 0.442836
vt 0.259579 0.442836
vt 0.260396 0.436756
vt 0.259566 0.442967
vt 0.259567 0.442967
vt 0.260387 0.436755
vt 0.260387 0.436755
vt 0.259558 0.442833
vt 0.260386 0.436754
vt 0.259560 0.442834
vt 0.000000 0.000000
vt 0.000000 1.000000
vt 0.045015 0.000000
vt 0.045015 1.000000
vt 0.565422 0.446266
vt 0.559578 0.440422
vt 0.560983 0.440422
vt 0.565422 0.446266
vt 0.259568 0.442967
vt 0.259571 0.442968
vt 0.259569 0.442969
vt 0.259569 0.442969
vt 0.259569 0.442967
vt 0.259581 0.442836
vt 0.259583 0.442836
vt 0.000000 0.000000
vt 0.000000 0.000000
vt 0.000000 0.000000
vt 0.000000 0.000000
vt 0.386020 0.750000
vt 0.384542 0.750000
vt 0.384542 0.750000
vt 0.386020 0.750000
vt 0.375000 1.000000
vt 0.375000 0.750000
vt 0.259570 0.442968
vt 0.259569 0.442967
vt 0.259570 0.442968
vt 0.259598 0.442838
vt 0.260398 0.436758
vt 0.260417 0.436761
vt 0.259600 0.442839
vt 0.260397 0.436757
vt 0.259568 0.442967
vt 0.259568 0.442967
vt 0.259573 0.442835
vt 0.259567 0.442834
vt 0.259566 0.442967
vt 0.259566 0.442834
vt 0.259564 0.442834
vt 0.259567 0.442969
vt 0.259565 0.442967
vt 0.260385 0.436754
vt 0.259564 0.442967
vt 0.259564 0.442968
vt 0.259564 0.442968
vt 0.259564 0.442967
vt 0.259569 0.442968
vt 0.259569 0.442968
vt 0.259569 0.442969
vt 0.259569 0.442969
vt 0.259568 0.442967
vt 0.259568 0.442967
vt 0.259568 0.442967
vt 0.259567 0.442967
vt 0.259567 0.442967
vt 0.259567 0.442967
vt 0.259567 0.442969
vt 0.259565 0.442967
vt 0.259565 0.442967
vt 0.259567 0.442969
vt 0.259564 0.442968
vn 0.0000 1.0000 0.0000
vn 1.0000 0.0000 0.0000
vn 0.0000 0.0000 1.0000
vn 0.0000 -1.0000 0.0000
vn -0.0000 0.0000 -1.0000
vn -1.0000 0.0000 0.0004
vn -1.0000 0.0000 0.0000
vn -0.0013 0.0000 -1.0000
vn 1.0000 0.0000 -0.0004
vn -1.0000 0.0000 0.0025
vn 0.9838 0.0000 -0.1793
vn -0.0012 0.0000 -1.0000
vn 0.0013 0.0000 1.0000
vn 0.0012 0.0000 1.0000
usemtl Material
s off
f 1/1/1 5/2/1 7/3/1 3/4/1
f 27/5/2 3/6/2 7/7/2 25/8/2
f 25/8/3 7/7/3 5/9/3 28/10/3
f 6/11/4 2/12/4 4/13/4 8/14/4
f 26/15/5 1/16/5 3/6/5 27/5/5
f 9/17/1 11/18/1 31/19/1 29/20/1
f 10/21/1 12/22/1 143/23/1 144/24/1
f 4/25/2 11/18/2 10/21/2 8/26/2
f 11/27/4 9/28/4 34/29/4 36/30/4
f 121/31/6 122/32/6 158/33/6 157/34/6
f 11/18/2 15/35/2 13/36/2 10/21/2
f 19/37/2 22/38/2 44/39/2 42/40/2
f 133/41/6 134/42/6 174/43/6 173/44/6
f 22/38/2 19/37/2 17/45/2 24/46/2
f 15/35/2 22/38/2 24/46/2 13/36/2
f 128/47/4 101/48/4 165/49/4 166/50/4
f 14/51/7 21/52/7 37/53/7 38/54/7
f 27/55/2 19/37/2 48/56/2 47/57/2
f 102/58/4 20/59/4 176/60/4 180/61/4
f 19/37/2 27/55/2 25/62/2 17/45/2
f 30/63/5 29/20/5 31/19/5 32/64/5
f 11/18/2 4/25/2 32/64/2 31/19/2
f 2/65/7 9/17/7 29/20/7 30/63/7
f 4/13/4 2/12/4 30/66/4 32/67/4
f 34/68/5 33/69/5 35/70/5 36/71/5
f 15/35/2 11/18/2 36/71/2 35/70/2
f 14/51/1 15/35/1 35/70/1 33/69/1
f 9/17/7 14/51/7 33/69/7 34/68/7
f 38/54/5 37/53/5 39/72/5 40/73/5
f 22/38/2 15/35/2 40/73/2 39/72/2
f 21/52/1 22/38/1 39/72/1 37/53/1
f 15/74/4 14/75/4 38/76/4 40/77/4
f 43/78/5 41/79/5 42/40/5 44/39/5
f 18/80/1 19/37/1 42/40/1 41/79/1
f 22/81/4 21/82/4 43/83/4 44/84/4
f 21/52/7 18/80/7 41/79/7 43/78/7
f 46/85/5 45/86/5 47/57/5 48/56/5
f 19/87/4 18/88/4 46/89/4 48/90/4
f 18/80/7 26/91/7 45/86/7 46/85/7
f 26/91/1 27/55/1 47/57/1 45/86/1
f 49/92/1 53/93/1 55/94/1 51/95/1
f 73/96/7 55/97/7 53/98/7 76/99/7
f 54/100/4 50/101/4 52/102/4 56/103/4
f 74/104/2 49/105/2 51/106/2 75/107/2
f 76/99/5 53/98/5 49/105/5 74/104/5
f 54/108/5 60/109/5 57/110/5 50/111/5
f 57/110/1 59/112/1 79/113/1 77/114/1
f 60/109/3 54/108/3 105/115/3 107/116/3
f 60/109/5 64/117/5 62/118/5 57/110/5
f 59/119/4 57/120/4 82/121/4 84/122/4
f 101/48/1 61/123/1 120/124/1 121/31/1
f 71/125/5 68/126/5 66/127/5 69/128/5
f 67/129/3 70/130/3 92/131/3 90/132/3
f 102/58/1 65/133/1 130/134/1 133/41/1
f 71/125/8 64/117/8 124/135/8 123/136/8
f 62/118/5 69/128/5 85/137/5 86/138/5
f 64/117/5 71/125/5 69/128/5 62/118/5
f 68/126/5 76/139/5 74/140/5 66/127/5
f 75/141/3 67/142/3 96/143/3 95/144/3
f 65/133/4 102/58/4 140/145/4 137/146/4
f 78/147/2 77/114/2 79/113/2 80/148/2
f 59/112/3 52/149/3 80/148/3 79/113/3
f 50/111/5 57/110/5 77/114/5 78/147/5
f 52/102/4 50/101/4 78/150/4 80/151/4
f 82/152/2 81/153/2 83/154/2 84/155/2
f 63/156/3 59/157/3 84/155/3 83/154/3
f 62/118/1 63/156/1 83/154/1 81/153/1
f 57/110/5 62/118/5 81/153/5 82/152/5
f 86/138/2 85/137/2 87/158/2 88/159/2
f 70/160/3 63/161/3 88/159/3 87/158/3
f 69/128/1 70/160/1 87/158/1 85/137/1
f 63/162/4 62/163/4 86/164/4 88/165/4
f 91/166/2 89/167/2 90/132/2 92/131/2
f 66/127/1 67/129/1 90/132/1 89/167/1
f 70/168/4 69/169/4 91/170/4 92/171/4
f 69/128/5 66/127/5 89/167/5 91/166/5
f 94/172/2 93/173/2 95/144/2 96/143/2
f 67/174/4 66/175/4 94/176/4 96/177/4
f 66/127/5 74/140/5 93/173/5 94/172/5
f 74/140/1 75/141/1 95/144/1 93/173/1
f 10/21/9 13/36/9 154/178/9 153/179/9
f 134/42/4 103/180/4 172/181/4 174/43/4
f 13/36/9 24/46/9 162/182/9 161/183/9
f 25/62/1 28/184/1 175/185/1 178/186/1
f 6/187/4 8/26/4 142/188/4 141/189/4
f 2/12/4 6/11/4 99/190/4 97/191/4
f 28/10/3 5/9/3 98/192/3 104/193/3
f 58/194/3 60/195/3 107/196/3 108/197/3
f 60/109/4 58/198/4 119/199/4 118/200/4
f 24/46/1 23/201/1 159/202/1 162/182/1
f 68/126/8 71/125/8 132/203/8 131/204/8
f 73/205/1 76/139/1 135/206/1 138/207/1
f 73/96/10 104/208/10 98/209/10 55/97/10
f 26/15/11 75/210/11 51/211/11 1/16/11
f 5/212/1 1/213/1 51/95/1 55/214/1 98/215/1
f 115/216/6 116/217/6 150/218/6 149/219/6
f 109/220/1 108/221/1 114/222/1 115/216/1
f 56/223/3 99/224/3 110/225/3 106/226/3
f 100/227/3 58/228/3 108/229/3 109/230/3
f 54/100/3 56/103/3 106/231/3 105/232/3
f 99/233/3 100/234/3 109/220/3 110/235/3
f 112/236/7 114/222/7 113/237/7 111/238/7
f 112/236/10 116/217/10 115/216/10 114/222/10
f 105/115/4 106/239/4 112/236/4 111/238/4
f 106/239/4 110/235/4 116/217/4 112/236/4
f 108/221/1 107/116/1 113/237/1 114/222/1
f 107/116/8 105/115/8 111/238/8 113/237/8
f 119/199/7 120/124/7 117/240/7 118/200/7
f 119/199/10 122/32/10 121/31/10 120/124/10
f 61/123/1 64/117/1 117/240/1 120/124/1
f 100/234/4 12/22/4 152/241/4 156/242/4
f 58/198/4 100/234/4 122/32/4 119/199/4
f 64/117/12 60/109/12 118/200/12 117/240/12
f 125/243/7 126/244/7 123/136/7 124/135/7
f 125/243/10 128/47/10 127/245/10 126/244/10
f 61/123/4 101/48/4 128/47/4 125/243/4
f 64/117/4 61/123/4 125/243/4 124/135/4
f 103/180/1 72/246/1 126/244/1 127/245/1
f 72/246/1 71/125/1 123/136/1 126/244/1
f 129/247/7 130/134/7 131/204/7 132/203/7
f 129/247/10 134/42/10 133/41/10 130/134/10
f 65/133/1 68/126/1 131/204/1 130/134/1
f 72/246/4 103/180/4 134/42/4 129/247/4
f 71/125/4 72/246/4 129/247/4 132/203/4
f 23/201/4 24/46/4 167/248/4 170/249/4
f 137/146/7 138/207/7 135/206/7 136/250/7
f 137/146/10 140/145/10 139/251/10 138/207/10
f 76/139/8 68/126/8 136/250/8 135/206/8
f 104/252/1 139/251/1 181/253/1 179/254/1
f 68/126/4 65/133/4 137/146/4 136/250/4
f 104/252/1 73/205/1 138/207/1 139/251/1
f 142/188/3 144/24/3 143/23/3 141/189/3
f 141/189/3 143/23/3 145/255/3 146/256/3
f 148/257/13 147/258/13 149/219/13 150/218/13
f 116/217/4 110/235/4 148/257/4 150/218/4
f 12/22/1 100/234/1 145/255/1 143/23/1
f 110/235/9 109/220/9 147/258/9 148/257/9
f 100/234/6 99/233/6 146/256/6 145/255/6
f 99/233/4 6/187/4 141/189/4 146/256/4
f 8/26/9 10/21/9 144/24/9 142/188/9
f 109/220/1 115/216/1 149/219/1 147/258/1
f 153/179/3 154/178/3 151/259/3 152/241/3
f 152/241/3 151/259/3 155/260/3 156/242/3
f 156/242/14 155/260/14 157/34/14 158/33/14
f 16/261/1 101/48/1 155/260/1 151/259/1
f 12/22/4 10/21/4 153/179/4 152/241/4
f 122/32/4 100/234/4 156/242/4 158/33/4
f 13/36/1 16/261/1 151/259/1 154/178/1
f 101/48/1 121/31/1 157/34/1 155/260/1
f 161/183/3 162/182/3 159/202/3 160/262/3
f 160/262/3 159/202/3 163/263/3 165/49/3
f 165/49/13 163/263/13 164/264/13 166/50/13
f 101/48/4 16/261/4 160/262/4 165/49/4
f 16/261/4 13/36/4 161/183/4 160/262/4
f 103/180/1 127/245/1 164/264/1 163/263/1
f 127/245/6 128/47/6 166/50/6 164/264/6
f 23/201/1 103/180/1 163/263/1 159/202/1
f 167/248/3 168/265/3 169/266/3 170/249/3
f 170/249/3 169/266/3 171/267/3 172/181/3
f 172/181/13 171/267/13 173/44/13 174/43/13
f 20/59/1 102/58/1 171/267/1 169/266/1
f 24/46/9 17/45/9 168/265/9 167/248/9
f 102/58/1 133/41/1 173/44/1 171/267/1
f 17/45/1 20/59/1 169/266/1 168/265/1
f 103/180/4 23/201/4 170/249/4 172/181/4
f 177/268/3 178/186/3 175/185/3 176/60/3
f 176/60/3 175/185/3 179/254/3 180/61/3
f 180/61/13 179/254/13 181/253/13 182/269/13
f 140/145/4 102/58/4 180/61/4 182/269/4
f 139/251/6 140/145/6 182/269/6 181/253/6
f 28/184/1 104/252/1 179/254/1 175/185/1
f 20/59/4 17/45/4 177/268/4 176/60/4
f 17/45/9 25/62/9 178/186/9 177/268/9
