# Blender v2.79 (sub 0) OBJ File: ''
# www.blender.org
mtllib untitled.mtl
o Cube.001
v -3.000000 2.000000 1.001441
v -3.000000 -0.000000 2.000000
v -3.000000 -0.000000 1.001441
v 1.000000 -0.000000 1.001441
v 1.000000 -0.000000 2.000000
v -3.000000 2.000000 2.000000
v 1.000000 2.000000 2.000000
v -3.000000 2.000000 -2.000000
v 1.000000 0.000000 -2.000000
v 1.000000 2.000000 -2.000000
v 1.000000 3.000000 -2.000000
v -3.000000 4.000000 -1.999999
v -3.000000 3.000000 -2.000000
v -3.000000 3.000000 2.000000
v 1.000000 4.000000 2.000001
v 1.000000 3.000000 2.000000
v -3.000000 4.000000 -0.998558
v -3.000000 3.000000 -0.998559
v 1.000000 4.000000 1.000001
v 1.000000 3.000000 1.000000
v -3.000000 3.000000 1.001441
v -3.000000 4.000000 2.000001
v -3.000000 3.000000 0.001441
v -3.000000 4.000000 1.001442
v -3.000000 4.000000 0.001442
v -3.000000 0.000000 -0.998559
v -3.000000 0.000000 -2.000000
v -3.000000 -0.000000 0.001441
v 1.000000 0.000000 -0.998559
v 1.000000 -0.000000 0.001441
v -3.000000 2.000000 -0.998559
v -3.000000 2.000000 0.001441
v 1.000000 3.000000 -1.000000
v 1.000000 4.000000 -1.999999
v 1.000000 3.000000 0.000000
v 1.000000 4.000000 -0.999999
v 1.000000 4.000000 0.000001
v 1.000000 2.000000 -1.000000
v 6.000000 2.000000 -1.000000
v 6.000000 -0.000000 0.001441
v 6.000000 0.000000 -0.998559
v 1.000000 2.000000 1.000000
v 6.000000 -0.000000 1.001441
v 6.000000 2.000000 1.000000
v 8.000000 -0.000000 1.001441
v 8.000000 -0.000000 0.001441
v 8.000000 0.000000 -0.998559
v 11.000000 0.000000 -0.998559
v 8.000000 2.000000 1.000000
v 11.000000 -0.000000 1.001441
v 11.000000 -0.000000 0.001441
v 11.000000 2.000000 -1.000000
v 8.000000 2.000000 -1.000000
v 13.000000 2.000000 -1.000000
v 13.000000 0.000000 -0.998559
v 13.000000 -0.000000 0.001441
v 13.000000 2.000000 1.000000
v 32.000000 -0.000000 1.001441
v 13.000000 -0.000000 1.001441
v 32.000000 -0.000000 0.001441
v 32.000000 2.000000 -1.000000
v 32.000000 0.000000 -0.998559
v 1.000000 2.000000 0.000000
v 32.000000 3.000000 1.000000
v 32.000000 2.000000 1.000000
v 11.000000 3.000000 1.000000
v 11.000000 2.000000 1.000000
v 8.000000 3.000000 1.000000
v 6.000000 3.000000 1.000000
v 13.000000 3.000000 1.000000
v 13.000000 3.000000 -1.000000
v 11.000000 3.000000 -1.000000
v 8.000000 3.000000 -1.000000
v 6.000000 3.000000 -1.000000
v 6.000000 2.000000 -3.000000
v 6.000000 0.000000 -2.998559
v 8.000000 3.000000 -3.000000
v 8.000000 0.000000 -2.998559
v 6.000000 3.000000 -3.000000
v 6.000000 2.000001 -7.000000
v 6.000000 0.000001 -6.998559
v 8.000000 3.000001 -6.998559
v 6.000000 3.000001 -7.000000
v 8.000000 2.000001 -6.998559
v 8.000000 0.000001 -6.998559
v 13.000000 2.000001 -6.998559
v 8.000000 2.000000 -3.000000
v 13.000000 3.000000 -3.000000
v 13.000000 0.000000 -2.998559
v 13.000000 0.000001 -6.998559
v 13.000000 2.000000 -3.000000
v 13.000000 3.000001 -6.998559
v 11.000000 2.000000 3.000000
v 11.000000 -0.000000 3.001441
v 13.000000 2.000000 3.000000
v 13.000000 -0.000000 3.001441
v 11.000000 3.000000 3.000000
v 11.000000 2.999999 7.000000
v 13.000000 -0.000001 7.001441
v 11.000000 1.999999 7.000000
v 11.000000 -0.000001 7.001441
v 13.000000 1.999999 7.001441
v 13.000000 2.999999 7.001441
v 18.000000 -0.000001 7.001441
v 18.000000 -0.000000 3.001441
v 13.000000 3.000000 3.000000
v 18.000000 2.000000 3.000000
v 18.000000 2.999999 7.001441
v 18.000000 1.999999 7.001441
v 18.000000 3.000000 3.000000
v 32.000000 3.000000 -1.000000
v 6.000000 2.000000 -1.002773
v 8.000000 2.000000 -1.002773
v 8.000000 3.000000 -1.002772
v 6.000000 3.000000 -1.002772
v 13.001642 1.997066 1.002798
v 11.001642 2.997066 1.002798
v 11.001642 1.997066 1.002798
v 13.001642 2.997066 1.002798
v 1.012062 3.000000 1.000000
v 1.012062 3.000000 -1.000000
v 1.012062 3.000000 0.000000
v 1.012062 2.000000 -1.000000
v 1.012062 2.000000 1.000000
v 1.012062 2.000000 0.000000
v -3.000000 4.002675 2.000000
v -3.000000 4.002675 1.001441
v 1.000000 4.002675 1.001441
v 1.000000 4.002675 2.000000
v 1.000000 4.002676 -2.000000
v -3.000000 4.002675 -0.998559
v -3.000000 4.002676 -2.000000
v -3.000000 4.002675 0.001441
v 1.000000 4.002675 -0.998559
v 1.000000 4.002675 0.001441
v 1.000000 3.000000 1.001441
v 1.000000 3.000000 -0.998559
v 1.000000 3.000000 0.001441
v 6.000000 3.000000 0.001441
v 6.000000 3.000000 -0.998559
v 6.000000 3.000000 1.001441
v 8.000000 3.000000 1.001441
v 8.000000 3.000000 0.001441
v 8.000000 3.000000 -0.998559
v 11.000000 3.000000 -0.998559
v 11.000000 3.000000 1.001441
v 11.000000 3.000000 0.001441
v 13.000000 3.000000 -0.998559
v 13.000000 3.000000 0.001441
v 32.000000 3.000000 1.001441
v 13.000000 3.000000 1.001441
v 32.000000 3.000000 0.001441
v 32.000000 3.000000 -0.998559
v 6.000000 3.000000 -2.998559
v 8.000000 3.000000 -2.998559
v 6.000000 3.000001 -6.998559
v 8.000000 3.000001 -6.998559
v 13.000000 3.000000 -2.998559
v 13.000000 3.000001 -6.998559
v 11.000000 3.000000 3.001441
v 13.000000 3.000000 3.001441
v 13.000000 2.999999 7.001441
v 11.000000 2.999999 7.001441
v 18.000000 2.999999 7.001441
v 18.000000 3.000000 3.001441
vt 0.375000 0.687590
vt 0.125000 0.750000
vt 0.125000 0.687590
vt 0.125000 0.687590
vt 0.125000 0.750000
vt 0.375000 0.750000
vt 0.000000 0.000000
vt 0.375000 0.500000
vt 0.125000 0.500000
vt 0.000000 0.000000
vt 0.000000 0.000000
vt 0.375000 0.500000
vt 0.375000 0.500000
vt 0.375000 0.750000
vt 0.000000 0.000000
vt 0.000000 0.000000
vt 0.375000 0.562590
vt 0.375000 0.562590
vt 0.000000 0.000000
vt 0.000000 0.000000
vt 0.375000 0.687590
vt 0.375000 0.750000
vt 0.375000 0.625090
vt 0.375000 0.687590
vt 0.375000 0.625090
vt 0.125000 0.562590
vt 0.125000 0.500000
vt 0.125000 0.625090
vt 0.125000 0.562590
vt 0.125000 0.625090
vt 0.375000 0.562590
vt 0.375000 0.625090
vt 0.000000 0.000000
vt 0.000000 0.000000
vt 0.000000 0.000000
vt 0.000000 0.000000
vt 0.000000 0.000000
vt 0.000000 0.000000
vt 0.000000 0.000000
vt 0.125000 0.625090
vt 0.125000 0.562590
vt 0.000000 0.000000
vt 0.125000 0.687590
vt 0.000000 0.000000
vt 0.125000 0.687590
vt 0.125000 0.625090
vt 0.125000 0.562590
vt 0.125000 0.562590
vt 0.000000 0.000000
vt 0.125000 0.687590
vt 0.125000 0.625090
vt 0.000000 0.000000
vt 0.000000 0.000000
vt 0.000000 0.000000
vt 0.125000 0.562590
vt 0.125000 0.625090
vt 0.000000 0.000000
vt 0.125000 0.687590
vt 0.125000 0.687590
vt 0.125000 0.625090
vt 0.000000 0.000000
vt 0.125000 0.562590
vt 0.000000 0.000000
vt 0.000000 0.000000
vt 0.000000 0.000000
vt 0.000000 0.000000
vt 0.000000 0.000000
vt 0.000000 0.000000
vt 0.000000 0.000000
vt 0.000000 0.000000
vt 0.000000 0.000000
vt 0.000000 0.000000
vt 0.000000 0.000000
vt 0.000000 0.000000
vt 0.000000 0.000000
vt 0.125000 0.562590
vt 0.000000 0.000000
vt 0.125000 0.562590
vt 0.000000 0.000000
vt 0.000000 0.000000
vt 0.125000 0.562590
vt 0.000000 0.000000
vt 0.000000 0.000000
vt 0.000000 0.000000
vt 0.125000 0.562590
vt 0.000000 0.000000
vt 0.000000 0.000000
vt 0.000000 0.000000
vt 0.125000 0.562590
vt 0.125000 0.562590
vt 0.000000 0.000000
vt 0.000000 0.000000
vt 0.000000 0.000000
vt 0.125000 0.687590
vt 0.000000 0.000000
vt 0.125000 0.687590
vt 0.000000 0.000000
vt 0.000000 0.000000
vt 0.125000 0.687590
vt 0.000000 0.000000
vt 0.125000 0.687590
vt 0.000000 0.000000
vt 0.000000 0.000000
vt 0.125000 0.687590
vt 0.125000 0.687590
vt 0.000000 0.000000
vt 0.000000 0.000000
vt 0.000000 0.000000
vt 0.000000 0.000000
vt 0.000000 0.000000
vt 0.000000 0.000000
vt 0.000000 0.000000
vt 0.000000 0.000000
vt 0.000000 0.000000
vt 0.000000 0.000000
vt 0.000000 0.000000
vt 0.000000 0.000000
vt 0.000000 0.000000
vt 0.000000 0.000000
vt 0.000000 0.000000
vt 0.000000 0.000000
vt 0.000000 0.000000
vt 0.000000 0.000000
vt 0.000000 0.000000
vt 0.000000 0.000000
vt 0.125000 0.750000
vt 0.125000 0.687590
vt 0.125000 0.687590
vt 0.125000 0.562590
vt 0.125000 0.500000
vt 0.125000 0.500000
vt 0.125000 0.625090
vt 0.125000 0.562590
vt 0.125000 0.625090
vt 0.125000 0.750000
vt 0.125000 0.687590
vt 0.125000 0.625090
vt 0.125000 0.625090
vt 0.125000 0.562590
vt 0.125000 0.562590
vt 0.125000 0.687590
vt 0.125000 0.625090
vt 0.125000 0.562590
vt 0.125000 0.562590
vt 0.125000 0.687590
vt 0.125000 0.625090
vt 0.125000 0.562590
vt 0.125000 0.687590
vt 0.125000 0.625090
vt 0.125000 0.687590
vt 0.125000 0.625090
vt 0.125000 0.562590
vt 0.125000 0.562590
vt 0.125000 0.562590
vt 0.125000 0.562590
vt 0.125000 0.562590
vt 0.125000 0.562590
vt 0.125000 0.687590
vt 0.125000 0.687590
vt 0.125000 0.687590
vt 0.125000 0.687590
vt 0.125000 0.687590
vt 0.125000 0.562590
vt 0.125000 0.687590
vt 0.125000 0.687590
vn 1.0000 0.0000 0.0000
vn 0.0000 1.0000 0.0000
vn 0.0000 0.0000 -1.0000
vn 0.0000 -0.0000 1.0000
vn -1.0000 0.0000 0.0000
vn 0.0000 0.0007 1.0000
vn 0.0000 0.0004 1.0000
vn 0.0000 -0.0004 -1.0000
vn 0.0000 -0.0007 -1.0000
vn 0.0000 -0.0005 -1.0000
vn -0.0007 0.0000 1.0000
vn -0.0004 0.0004 1.0000
vn -0.0003 0.0001 1.0000
vn -0.0007 0.0006 1.0000
vn -0.0003 0.0000 1.0000
vn 0.0003 -0.0001 -1.0000
vn 0.0004 -0.0004 -1.0000
vn 0.0007 -0.0004 -1.0000
vn 0.0007 0.0000 -1.0000
vn 0.0004 0.0000 -1.0000
vn 0.0000 -1.0000 -0.0000
usemtl Material.001
s 1
f 1/1/1 2/2/1 3/3/1
f 2/2/2 4/4/2 3/3/2
f 5/5/3 6/6/3 7/7/3
f 8/8/4 9/9/4 10/10/4
f 11/11/4 12/12/4 13/13/4
f 14/14/3 15/15/3 16/16/3
f 13/13/1 17/17/1 18/18/1
f 16/16/5 19/19/5 20/20/5
f 21/21/1 22/22/1 14/14/1
f 23/23/1 24/24/1 21/21/1
f 18/18/1 25/25/1 23/23/1
f 26/26/2 9/9/2 27/27/2
f 28/28/2 29/29/2 26/26/2
f 3/3/2 30/30/2 28/28/2
f 8/8/1 26/26/1 27/27/1
f 31/31/1 28/28/1 26/26/1
f 32/32/1 3/3/1 28/28/1
f 33/33/5 34/34/5 11/11/5
f 35/35/5 36/36/5 33/33/5
f 20/20/5 37/37/5 35/35/5
f 7/7/5 4/4/5 5/5/5
f 38/38/5 9/9/5 29/29/5
f 29/29/6 39/39/7 38/38/4
f 4/4/2 40/40/2 30/30/2
f 30/30/2 41/41/2 29/29/2
f 42/42/8 43/43/9 4/4/9
f 44/44/8 45/45/9 43/43/9
f 43/43/2 46/46/2 40/40/2
f 40/40/2 47/47/2 41/41/2
f 46/46/2 48/48/2 47/47/2
f 49/49/8 50/50/9 45/45/9
f 45/45/2 51/51/2 46/46/2
f 47/47/6 52/52/7 53/53/6
f 48/48/6 54/54/7 52/52/7
f 51/51/2 55/55/2 48/48/2
f 50/50/2 56/56/2 51/51/2
f 57/57/9 58/58/9 59/59/9
f 59/59/2 60/60/2 56/56/2
f 55/55/6 61/61/7 54/54/7
f 56/56/2 62/62/2 55/55/2
f 42/42/5 35/35/5 63/63/5
f 63/63/5 33/33/5 38/38/5
f 38/38/5 11/11/5 10/10/5
f 31/31/1 23/23/1 32/32/1
f 32/32/1 21/21/1 1/1/1
f 1/1/1 14/14/1 6/6/1
f 7/7/5 20/20/5 42/42/5
f 8/8/1 18/18/1 31/31/1
f 6/6/3 16/16/3 7/7/3
f 10/10/4 13/13/4 8/8/4
f 57/57/10 64/64/3 65/65/8
f 49/49/8 66/66/3 67/67/3
f 44/44/8 68/68/3 49/49/8
f 42/42/8 69/69/3 44/44/8
f 67/67/3 70/70/3 57/57/3
f 61/61/7 71/71/4 54/54/7
f 54/54/7 72/72/4 52/52/7
f 52/52/7 73/73/4 53/53/4
f 74/74/4 38/38/4 39/39/7
f 74/74/4 53/53/4 73/73/4
f 74/74/1 39/39/1 75/75/1
f 47/47/2 76/76/2 41/41/2
f 39/39/1 76/76/1 75/75/1
f 53/53/5 73/73/5 77/77/5
f 53/53/5 78/78/5 47/47/5
f 79/79/1 75/75/1 80/80/1
f 78/78/2 81/81/2 76/76/2
f 75/75/1 81/81/1 80/80/1
f 82/82/11 83/83/11 80/80/11
f 81/81/12 84/84/13 80/80/14
f 85/85/4 86/86/4 84/84/13
f 87/87/8 77/77/3 88/88/3
f 87/87/8 89/89/9 78/78/9
f 82/82/15 84/84/13 86/86/4
f 78/78/2 90/90/2 85/85/2
f 91/91/5 90/90/5 89/89/5
f 91/91/5 88/88/5 92/92/5
f 50/50/1 93/93/1 94/94/1
f 59/59/5 95/95/5 57/57/5
f 50/50/2 96/96/2 59/59/2
f 70/70/5 57/57/5 95/95/5
f 67/67/1 66/66/1 97/97/1
f 93/93/1 97/97/1 98/98/1
f 94/94/2 99/99/2 96/96/2
f 94/94/1 100/100/1 101/101/1
f 102/102/16 101/101/17 100/100/18
f 98/98/19 103/103/20 102/102/16
f 102/102/16 104/104/3 99/99/3
f 99/99/2 105/105/2 96/96/2
f 106/106/4 95/95/7 107/107/7
f 96/96/6 107/107/7 95/95/7
f 102/102/16 103/103/20 108/108/3
f 105/105/5 109/109/5 107/107/5
f 108/108/5 110/110/5 107/107/5
f 111/111/5 65/65/5 64/64/5
f 1/1/1 6/6/1 2/2/1
f 2/2/2 5/5/2 4/4/2
f 5/5/3 2/2/3 6/6/3
f 8/8/4 27/27/4 9/9/4
f 11/11/4 34/34/4 12/12/4
f 14/14/3 22/22/3 15/15/3
f 13/13/1 12/12/1 17/17/1
f 16/16/5 15/15/5 19/19/5
f 21/21/1 24/24/1 22/22/1
f 23/23/1 25/25/1 24/24/1
f 18/18/1 17/17/1 25/25/1
f 26/26/2 29/29/2 9/9/2
f 28/28/2 30/30/2 29/29/2
f 3/3/2 4/4/2 30/30/2
f 8/8/1 31/31/1 26/26/1
f 31/31/1 32/32/1 28/28/1
f 32/32/1 1/1/1 3/3/1
f 33/33/5 36/36/5 34/34/5
f 35/35/5 37/37/5 36/36/5
f 20/20/5 19/19/5 37/37/5
f 7/7/5 42/42/5 4/4/5
f 38/38/5 10/10/5 9/9/5
f 29/29/6 41/41/6 39/39/7
f 4/4/2 43/43/2 40/40/2
f 30/30/2 40/40/2 41/41/2
f 42/42/8 44/44/8 43/43/9
f 44/44/8 49/49/8 45/45/9
f 43/43/2 45/45/2 46/46/2
f 40/40/2 46/46/2 47/47/2
f 46/46/2 51/51/2 48/48/2
f 49/49/8 67/67/9 50/50/9
f 45/45/2 50/50/2 51/51/2
f 47/47/6 48/48/6 52/52/7
f 48/48/6 55/55/6 54/54/7
f 51/51/2 56/56/2 55/55/2
f 50/50/2 59/59/2 56/56/2
f 57/57/10 65/65/8 58/58/9
f 59/59/2 58/58/2 60/60/2
f 55/55/6 62/62/6 61/61/6
f 56/56/2 60/60/2 62/62/2
f 42/42/5 20/20/5 35/35/5
f 63/63/5 35/35/5 33/33/5
f 38/38/5 33/33/5 11/11/5
f 31/31/1 18/18/1 23/23/1
f 32/32/1 23/23/1 21/21/1
f 1/1/1 21/21/1 14/14/1
f 7/7/5 16/16/5 20/20/5
f 8/8/1 13/13/1 18/18/1
f 6/6/3 14/14/3 16/16/3
f 10/10/4 11/11/4 13/13/4
f 57/57/3 70/70/3 64/64/3
f 49/49/8 68/68/3 66/66/3
f 44/44/8 69/69/3 68/68/3
f 42/42/8 20/20/3 69/69/3
f 67/67/3 66/66/3 70/70/3
f 61/61/7 111/111/4 71/71/4
f 54/54/7 71/71/4 72/72/4
f 52/52/7 72/72/4 73/73/4
f 74/74/4 33/33/4 38/38/4
f 74/74/4 39/39/4 53/53/4
f 74/74/1 75/75/1 79/79/1
f 47/47/2 78/78/2 76/76/2
f 39/39/1 41/41/1 76/76/1
f 53/53/5 77/77/5 87/87/5
f 53/53/5 87/87/5 78/78/5
f 79/79/1 80/80/1 83/83/1
f 78/78/2 85/85/2 81/81/2
f 75/75/1 76/76/1 81/81/1
f 82/82/15 80/80/14 84/84/13
f 81/81/12 85/85/4 84/84/13
f 85/85/4 90/90/4 86/86/4
f 87/87/8 88/88/3 91/91/8
f 87/87/8 91/91/8 89/89/9
f 82/82/15 86/86/4 92/92/4
f 78/78/2 89/89/2 90/90/2
f 91/91/5 86/86/5 90/90/5
f 91/91/5 92/92/5 86/86/5
f 50/50/1 67/67/1 93/93/1
f 59/59/5 96/96/5 95/95/5
f 50/50/2 94/94/2 96/96/2
f 70/70/5 95/95/5 106/106/5
f 67/67/1 97/97/1 93/93/1
f 93/93/1 98/98/1 100/100/1
f 94/94/2 101/101/2 99/99/2
f 94/94/1 93/93/1 100/100/1
f 102/102/16 99/99/3 101/101/17
f 98/98/19 102/102/16 100/100/18
f 102/102/16 109/109/3 104/104/3
f 99/99/2 104/104/2 105/105/2
f 106/106/4 107/107/7 110/110/4
f 96/96/6 105/105/6 107/107/7
f 102/102/16 108/108/3 109/109/3
f 105/105/5 104/104/5 109/109/5
f 108/108/5 107/107/5 109/109/5
f 111/111/5 61/61/5 65/65/5
f 115/112/3 114/113/3 113/114/3
f 115/112/3 113/114/3 112/115/3
f 118/116/4 116/117/4 119/118/4
f 118/116/4 119/118/4 117/119/4
f 124/120/1 125/121/1 122/122/1
f 125/121/1 123/123/1 121/124/1
f 124/120/1 122/122/1 120/125/1
f 125/121/1 121/124/1 122/122/1
f 126/126/21 127/127/21 128/128/21
f 131/129/21 132/130/21 130/131/21
f 133/132/21 131/129/21 134/133/21
f 127/127/21 133/132/21 135/134/21
f 126/126/21 128/128/21 129/135/21
f 131/129/21 130/131/21 134/133/21
f 133/132/21 134/133/21 135/134/21
f 127/127/21 135/134/21 128/128/21
f 136/136/21 138/137/21 139/138/21
f 138/137/21 137/139/21 140/140/21
f 141/141/21 139/138/21 143/142/21
f 139/138/21 140/140/21 144/143/21
f 143/142/21 144/143/21 145/144/21
f 142/145/21 143/142/21 147/146/21
f 147/146/21 145/144/21 148/147/21
f 146/148/21 147/146/21 149/149/21
f 151/150/21 149/149/21 152/151/21
f 149/149/21 148/147/21 153/152/21
f 144/143/21 140/140/21 154/153/21
f 155/154/21 154/153/21 156/155/21
f 155/154/21 157/156/21 159/157/21
f 146/148/21 151/150/21 161/158/21
f 160/159/21 161/158/21 162/160/21
f 162/160/21 161/158/21 165/161/21
f 136/136/21 139/138/21 141/141/21
f 138/137/21 140/140/21 139/138/21
f 141/141/21 143/142/21 142/145/21
f 139/138/21 144/143/21 143/142/21
f 143/142/21 145/144/21 147/146/21
f 142/145/21 147/146/21 146/148/21
f 147/146/21 148/147/21 149/149/21
f 146/148/21 149/149/21 151/150/21
f 151/150/21 152/151/21 150/162/21
f 149/149/21 153/152/21 152/151/21
f 144/143/21 154/153/21 155/154/21
f 155/154/21 156/155/21 157/156/21
f 155/154/21 159/157/21 158/163/21
f 146/148/21 161/158/21 160/159/21
f 160/159/21 162/160/21 163/164/21
f 162/160/21 165/161/21 164/165/21
