# Blender v2.80 (sub 75) OBJ File: 'game engine assets.blend'
# www.blender.org
mtllib wall.mtl
o Cube.000_Cube.005
v 0.211697 6.722889 -4.466359
v 0.211697 -1.026694 -4.466359
v 0.211696 6.722889 4.466371
v 0.211696 -1.026694 4.466371
v -0.209422 6.722889 -4.466359
v -0.209422 -1.026694 -4.466359
v -0.209422 6.722889 4.466371
v -0.209422 -1.026694 4.466371
v 0.211697 -0.504356 -4.466359
v -0.209422 -0.504356 4.466371
v 0.211696 -0.504356 4.466371
v -0.209422 -0.504356 -4.466359
v -0.209422 -0.462644 4.466371
v 0.211697 -0.462644 -4.466359
v 0.211696 -0.462644 4.466371
v -0.209422 -0.462644 -4.466359
v -0.209422 -0.215838 4.466371
v 0.211697 -0.215838 -4.466359
v 0.211696 -0.215838 4.466371
v -0.209422 -0.215838 -4.466359
v 0.211697 -0.256487 -4.466359
v 0.211696 -0.256487 4.466371
v -0.209422 -0.256487 -4.466359
v -0.209422 -0.256486 4.466371
v -0.209422 -0.175758 4.466371
v 0.211697 -0.175759 -4.466359
v 0.211696 -0.175759 4.466371
v -0.209422 -0.175759 -4.466359
v 0.315758 -0.504356 -4.466359
v 0.315758 -1.026694 -4.466359
v 0.315758 -0.504356 4.466371
v 0.315758 -1.026694 4.466371
v 0.300248 -0.462644 -4.466359
v 0.300248 -0.504356 -4.466359
v 0.300248 -0.462644 4.466371
v 0.300248 -0.504356 4.466371
v 0.290608 -0.256487 -4.466359
v 0.290608 -0.462644 -4.466359
v 0.290608 -0.256487 4.466371
v 0.290608 -0.462644 4.466371
v 0.277678 -0.215838 -4.466359
v 0.277679 -0.215838 4.466371
v 0.277678 -0.256487 -4.466359
v 0.277679 -0.256487 4.466371
v 0.250569 -0.175759 -4.466359
v 0.250569 -0.215838 -4.466359
v 0.250569 -0.175759 4.466371
v 0.250569 -0.215838 4.466371
v -0.319475 -1.026694 -4.466359
v -0.319475 -1.026694 4.466371
v -0.319475 -0.504356 -4.466359
v -0.319475 -0.504356 4.466371
v -0.303252 -0.462644 -4.466359
v -0.303252 -0.504356 -4.466359
v -0.303252 -0.504356 4.466371
v -0.303252 -0.462644 4.466371
v -0.292501 -0.256487 -4.466359
v -0.292501 -0.462644 -4.466359
v -0.292501 -0.462644 4.466371
v -0.292501 -0.256486 4.466371
v -0.277448 -0.256486 4.466371
v -0.277448 -0.215838 4.466371
v -0.277449 -0.215838 -4.466359
v -0.277449 -0.256487 -4.466359
v -0.250147 -0.175759 -4.466359
v -0.250147 -0.215838 -4.466359
v -0.250147 -0.215838 4.466371
v -0.250147 -0.175758 4.466371
vt 0.834254 0.781840
vt 0.835429 0.781840
vt 0.835429 0.843160
vt 0.834254 0.843160
vt 0.000000 0.000000
vt 0.000000 1.000000
vt 1.000000 1.000000
vt 1.000000 0.000000
vt 0.832787 0.781840
vt 0.833963 0.781840
vt 0.833963 0.843160
vt 0.832787 0.843160
vt 1.000000 0.000000
vt 1.000000 1.000000
vt 0.000000 1.000000
vt 0.000000 0.000000
vt 0.842853 0.781840
vt 0.842853 0.782046
vt 0.841677 0.782046
vt 0.841677 0.781840
vt 0.837434 0.781840
vt 0.837434 0.843160
vt 0.837144 0.843160
vt 0.837144 0.781840
vt 0.836836 0.843160
vt 0.836836 0.781840
vt 0.837143 0.781840
vt 0.837144 0.843160
vt 0.842853 0.782063
vt 0.841677 0.782063
vt 0.837958 0.843160
vt 0.837958 0.781840
vt 0.838205 0.781840
vt 0.838206 0.843160
vt 0.837958 0.781840
vt 0.837958 0.843160
vt 0.837696 0.843160
vt 0.837696 0.781840
vt 0.842853 0.782144
vt 0.842853 0.782160
vt 0.841677 0.782160
vt 0.841677 0.782144
vt 0.841526 0.787867
vt 0.841387 0.787867
vt 0.841387 0.787845
vt 0.841526 0.787845
vt 0.838685 0.843160
vt 0.838685 0.781840
vt 0.838917 0.781840
vt 0.838917 0.843160
vt 0.841457 0.782144
vt 0.841457 0.782063
vt 0.842853 0.782176
vt 0.841677 0.782176
vt 0.842967 0.782160
vt 0.842967 0.782176
vt 0.830698 0.781840
vt 0.832480 0.781840
vt 0.832480 0.843160
vt 0.830698 0.843160
vt 0.841387 0.782046
vt 0.841387 0.781840
vt 0.834253 0.781840
vt 0.834254 0.843160
vt 0.840391 0.843160
vt 0.840249 0.843160
vt 0.840249 0.781840
vt 0.840391 0.781840
vt 0.838453 0.781840
vt 0.838453 0.843160
vt 0.838206 0.843160
vt 0.838206 0.781840
vt 0.841430 0.782063
vt 0.841430 0.782046
vt 0.836836 0.843160
vt 0.836133 0.843160
vt 0.836133 0.781840
vt 0.836836 0.781840
vt 0.839137 0.781840
vt 0.839137 0.843160
vt 0.838917 0.843160
vt 0.838917 0.781840
vt 0.839137 0.843160
vt 0.839137 0.781840
vt 0.839358 0.781840
vt 0.839358 0.843160
vt 0.840391 0.781840
vt 0.840530 0.781840
vt 0.840530 0.843160
vt 0.840391 0.843160
vt 0.840106 0.781840
vt 0.840106 0.843160
vt 0.839922 0.843160
vt 0.839922 0.781840
vt 0.839738 0.843160
vt 0.839738 0.781840
vt 0.839922 0.781840
vt 0.839922 0.843160
vt 0.841493 0.782160
vt 0.841493 0.782144
vt 0.840942 0.843160
vt 0.840805 0.843160
vt 0.840805 0.781840
vt 0.840942 0.781840
vt 0.841170 0.843160
vt 0.841170 0.781840
vt 0.841278 0.781840
vt 0.841278 0.843160
vt 0.841569 0.782176
vt 0.841569 0.782160
vt 0.841387 0.781840
vt 0.841387 0.843160
vt 0.841278 0.843160
vt 0.841278 0.781840
vt 0.841387 0.787463
vt 0.841387 0.787327
vt 0.841387 0.787476
vt 0.841387 0.788386
vt 0.841387 0.788237
vt 0.841524 0.788386
vt 0.841524 0.788373
vt 0.841387 0.787612
vt 0.841387 0.787476
vt 0.841387 0.787633
vt 0.841387 0.788024
vt 0.841526 0.788024
vt 0.842229 0.787867
vt 0.841526 0.788003
vt 0.841526 0.788029
vt 0.842229 0.788029
vt 0.781840 0.781840
vt 0.781840 0.781840
vt 0.781840 0.781840
vt 0.841387 0.788195
vt 0.841529 0.788059
vt 0.841387 0.788224
vt 0.841529 0.788224
vt 0.781840 0.781840
vt 0.781840 0.781840
vt 0.781840 0.781840
vt 0.841677 0.787633
vt 0.842853 0.787840
vt 0.841387 0.787633
vt 0.841387 0.787840
vt 0.841524 0.788237
vt 0.841387 0.788059
vt 0.842853 0.787633
vt 0.830698 0.843160
vt 0.828916 0.843160
vt 0.828915 0.781840
vt 0.830698 0.781840
vt 0.843160 0.787633
vt 0.843160 0.787840
vt 0.843160 0.781840
vt 0.843160 0.782046
vt 0.832480 0.843160
vt 0.832480 0.781840
vt 0.840249 0.843160
vt 0.840106 0.843160
vt 0.840106 0.781840
vt 0.840249 0.781840
vt 0.841387 0.788029
vt 0.841529 0.788029
vt 0.843115 0.782046
vt 0.843115 0.782063
vt 0.837434 0.843160
vt 0.837434 0.781840
vt 0.837696 0.781840
vt 0.837696 0.843160
vt 0.836133 0.843160
vt 0.835429 0.843160
vt 0.835429 0.781840
vt 0.836133 0.781840
vt 0.843085 0.782063
vt 0.843085 0.782144
vt 0.838685 0.781840
vt 0.838685 0.843160
vt 0.838453 0.843160
vt 0.838453 0.781840
vt 0.841526 0.787840
vt 0.842229 0.787840
vt 0.840669 0.843160
vt 0.840530 0.843160
vt 0.840530 0.781840
vt 0.840668 0.781840
vt 0.839548 0.781840
vt 0.839548 0.843160
vt 0.839358 0.843160
vt 0.839358 0.781840
vt 0.843043 0.782144
vt 0.843043 0.782160
vt 0.839548 0.843160
vt 0.839548 0.781840
vt 0.839738 0.781840
vt 0.839738 0.843160
vt 0.840805 0.843160
vt 0.840669 0.843160
vt 0.840669 0.781840
vt 0.840805 0.781840
vt 0.841056 0.843160
vt 0.841056 0.781840
vt 0.841170 0.781840
vt 0.841170 0.843160
vt 0.841056 0.781840
vt 0.841056 0.843160
vt 0.840942 0.843160
vt 0.840942 0.781840
vt 0.841387 0.788224
vt 0.841524 0.788224
vn 0.0000 1.0000 0.0000
vn -1.0000 0.0000 -0.0000
vn 0.0000 -1.0000 0.0000
vn 1.0000 0.0000 0.0000
vn 0.0000 0.0000 -1.0000
vn 0.0000 0.0000 1.0000
usemtl Material
s off
f 1/1/1 5/2/1 7/3/1 3/4/1
f 25/5/2 7/6/2 5/7/2 28/8/2
f 6/9/3 2/10/3 4/11/3 8/12/3
f 26/13/4 1/14/4 3/15/4 27/16/4
f 28/8/5 5/7/5 1/14/5 26/13/5
f 6/17/5 12/18/5 9/19/5 2/20/5
f 9/21/1 11/22/1 31/23/1 29/24/1
f 10/25/1 12/26/1 51/27/1 52/28/1
f 12/18/5 16/29/5 14/30/5 9/19/5
f 11/31/3 9/32/3 34/33/3 36/34/3
f 12/35/3 10/36/3 55/37/3 54/38/3
f 23/39/5 20/40/5 18/41/5 21/42/5
f 24/43/6 17/44/6 62/45/6 61/46/6
f 24/47/1 23/48/1 57/49/1 60/50/1
f 14/30/5 21/42/5 37/51/5 38/52/5
f 16/29/5 23/39/5 21/42/5 14/30/5
f 20/40/5 28/53/5 26/54/5 18/41/5
f 28/53/5 20/40/5 66/55/5 65/56/5
f 30/57/4 29/58/4 31/59/4 32/60/4
f 2/20/5 9/19/5 29/61/5 30/62/5
f 4/11/3 2/10/3 30/63/3 32/64/3
f 34/65/4 33/66/4 35/67/4 36/68/4
f 14/69/1 15/70/1 35/71/1 33/72/1
f 9/19/5 14/30/5 33/73/5 34/74/5
f 38/75/4 37/76/4 39/77/4 40/78/4
f 21/79/1 22/80/1 39/81/1 37/82/1
f 15/83/3 14/84/3 38/85/3 40/86/3
f 43/87/4 41/88/4 42/89/4 44/90/4
f 18/91/1 19/92/1 42/93/1 41/94/1
f 22/95/3 21/96/3 43/97/3 44/98/3
f 21/42/5 18/41/5 41/99/5 43/100/5
f 46/101/4 45/102/4 47/103/4 48/104/4
f 19/105/3 18/106/3 46/107/3 48/108/3
f 18/41/5 26/54/5 45/109/5 46/110/5
f 26/111/1 27/112/1 47/113/1 45/114/1
f 3/15/6 7/6/6 27/16/6
f 27/115/5 25/116/5 47/117/5
f 47/118/6 25/119/6 48/120/6
f 48/120/6 25/119/6 19/121/6
f 19/122/5 17/123/5 42/124/5
f 42/125/6 17/44/6 44/126/6
f 24/43/6 13/127/6 22/128/6
f 39/129/6 13/127/6 40/130/6
f 40/131/5 13/132/5 15/133/5
f 15/134/6 10/135/6 35/136/6
f 35/136/6 10/135/6 36/137/6
f 36/138/6 10/139/6 11/140/6
f 11/141/6 8/142/6 31/143/6
f 31/143/6 8/142/6 32/144/6
f 27/16/6 7/6/6 25/5/6
f 19/121/6 25/119/6 17/145/6
f 22/128/6 44/126/6 24/43/6
f 44/126/6 17/44/6 24/43/6
f 15/134/6 13/146/6 10/135/6
f 11/141/6 10/147/6 8/142/6
f 13/127/6 39/129/6 22/128/6
f 50/148/2 52/149/2 51/150/2 49/151/2
f 8/142/6 10/147/6 52/152/6 50/153/6
f 12/18/5 6/17/5 49/154/5 51/155/5
f 6/9/3 8/12/3 50/156/3 49/157/3
f 55/158/2 56/159/2 53/160/2 54/161/2
f 10/135/6 13/146/6 56/162/6 55/163/6
f 16/29/5 12/18/5 54/164/5 53/165/5
f 13/166/1 16/167/1 53/168/1 56/169/1
f 59/170/2 60/171/2 57/172/2 58/173/2
f 23/39/5 16/29/5 58/174/5 57/175/5
f 16/176/3 13/177/3 59/178/3 58/179/3
f 13/127/6 24/43/6 60/180/6 59/181/6
f 61/182/2 62/183/2 63/184/2 64/185/2
f 23/186/3 24/187/3 61/188/3 64/189/3
f 20/40/5 23/39/5 64/190/5 63/191/5
f 17/192/1 20/193/1 63/194/1 62/195/1
f 67/196/2 68/197/2 65/198/2 66/199/2
f 25/200/1 28/201/1 65/202/1 68/203/1
f 20/204/3 17/205/3 67/206/3 66/207/3
f 17/145/6 25/119/6 68/208/6 67/209/6
